<svg width="245" height="27" fill="none" xmlns="http://www.w3.org/2000/svg"><path d="M124.219 4.545h8.132V2.041h-19.27v2.504h8.054v22.252h3.084V4.545ZM3.197 12.666V2.07H.115v24.726h3.082V14.656l12.49 12.141h4.392L6.223 13.595l13.4-11.524H15.34L3.197 12.666Z" fill="#1A202C"></path><path d="M45.171 26.797h3.518L35.852.964 22.66 26.797h3.495L35.747 7.43l9.424 19.368Z" fill="#E53E3E"></path><path d="M61.102 4.545h8.13V2.041h-19.27v2.504h8.052v22.252h3.088V4.545ZM79.196 24.323 94.738 2.041H75.212v2.504h14.25l-15.51 22.283h20.62v-2.505H79.196ZM205.557 26.828h15.635v-2.505H208.63v-9.075h11.987v-2.507H208.63V4.545h12.317V2.041h-15.39v24.787ZM138.396 26.828h15.633v-2.505h-12.553v-9.075h11.99v-2.507h-11.99V4.545H153.8V2.041h-15.404v24.787ZM164.844 2.07h-3.087v24.758h14.236v-2.505h-11.149V2.071ZM187.504 2.07h-3.08v24.758h14.237v-2.505h-11.157V2.071ZM230.874 15.99h-.014l9.586 10.807h3.843l-9.91-11.034c5.975-.38 7.98-3.08 7.98-6.906 0-5.601-4.984-6.818-10.517-6.818h-4.054v24.758h3.086V15.99Zm0-11.445h.968c3.907 0 7.431.396 7.431 4.51 0 3.868-3.724 4.462-7.398 4.462h-1.001V4.545Z" fill="#1A202C"></path></svg>