<svg width="182" height="61" fill="none" xmlns="http://www.w3.org/2000/svg" class="text-blue-500" data-v-010b9c1d=""><path d="M177.555 40.657a27.913 27.913 0 0 1-6 8.9 27.907 27.907 0 0 1-19.801 8.201c-3.78 0-7.447-.74-10.899-2.2a27.892 27.892 0 0 1-8.9-6.001 27.902 27.902 0 0 1-8.201-19.798 27.903 27.903 0 0 1 8.201-19.8 27.897 27.897 0 0 1 19.799-8.202 27.828 27.828 0 0 1 16.313 5.246 5.136 5.136 0 0 0 .773 6.267 5.135 5.135 0 0 0 6.144.845 27.81 27.81 0 0 1 2.571 4.745 27.82 27.82 0 0 1 2.2 10.899c0 3.78-.74 7.446-2.2 10.898Zm1.619-22.481a29.638 29.638 0 0 0-2.825-5.174 5.135 5.135 0 0 0-7.134-7.338A29.571 29.571 0 0 0 151.754 0a29.67 29.67 0 0 0-21.042 8.716 29.652 29.652 0 0 0-6.376 9.459 29.57 29.57 0 0 0-2.339 11.583c0 4.016.787 7.913 2.339 11.582a29.647 29.647 0 0 0 6.376 9.458 29.67 29.67 0 0 0 21.042 8.717c4.018 0 7.915-.787 11.584-2.34a29.664 29.664 0 0 0 9.459-6.377 29.666 29.666 0 0 0 8.715-21.04 29.57 29.57 0 0 0-2.338-11.584Z" fill="currentColor"></path> <path d="m140.744 29.224-.166-.063.162-.073c1.879-.852 2.832-2.421 2.832-4.665 0-3.414-2.329-5.707-5.797-5.707-3.338 0-5.651 2.09-5.911 5.333h2.011c.24-2.233 1.694-3.564 3.9-3.564 2.301 0 3.788 1.558 3.788 3.968 0 2.576-1.341 3.937-3.878 3.937h-.375v1.74h.375c2.792 0 4.267 1.454 4.267 4.207 0 2.516-1.678 4.206-4.177 4.206-2.432 0-3.987-1.386-4.172-3.713h-2.01c.192 3.435 2.498 5.483 6.182 5.483 3.758 0 6.186-2.334 6.186-5.947 0-2.611-1.082-4.341-3.217-5.142ZM152.159 38.491c-2.319 0-3.818-1.722-3.818-4.386 0-2.665 1.499-4.387 3.818-4.387 2.301 0 3.848 1.763 3.848 4.387 0 2.664-1.511 4.386-3.848 4.386Zm.389-10.453c-.824 0-1.569.149-2.215.443l-.189.085 4.801-9.663h-2.051l-5.222 10.532c-.939 1.878-1.34 3.302-1.34 4.76 0 3.685 2.299 6.066 5.857 6.066 3.485 0 5.827-2.51 5.827-6.246 0-3.52-2.248-5.977-5.468-5.977ZM169.91 34.366c0 2.52-1.475 4.147-3.757 4.147-2.283 0-3.758-1.627-3.758-4.147v-9.704c0-2.52 1.475-4.147 3.758-4.147 2.282 0 3.757 1.627 3.757 4.147v9.704Zm-3.757-15.62c-3.396 0-5.767 2.383-5.767 5.796v9.944c0 3.413 2.371 5.797 5.767 5.797 3.395 0 5.767-2.384 5.767-5.797v-9.944c0-3.413-2.372-5.797-5.767-5.797ZM13.588 32.793c0 1.746-.511 3.108-1.534 4.087-1.023.978-2.414 1.468-4.176 1.468-1.761 0-3.155-.487-4.183-1.46-1.027-.974-1.541-2.344-1.541-4.11V18.606H.364v14.433c.048 2.13.75 3.796 2.106 5 1.355 1.204 3.158 1.806 5.408 1.806 1.478 0 2.786-.28 3.927-.842 1.14-.56 2.023-1.364 2.649-2.41.626-1.045.944-2.273.954-3.684V18.605h-1.82v14.188ZM27.905 36.657c-.827 1.156-1.979 1.734-3.456 1.734-1.067 0-1.992-.235-2.774-.705-.783-.47-1.385-1.151-1.806-2.043v-7.469c.411-.969 1.003-1.707 1.776-2.216.773-.508 1.698-.763 2.774-.763 1.488 0 2.647.576 3.479 1.727.832 1.151 1.247 2.72 1.247 4.706 0 2.197-.413 3.873-1.24 5.03ZM24.815 23.7c-2.172 0-3.83.83-4.975 2.49l-.088-2.202h-1.63v21.556h1.747v-7.944c1.155 1.497 2.818 2.245 4.99 2.245 1.84 0 3.308-.712 4.404-2.137 1.096-1.424 1.644-3.35 1.644-5.777v-.245c0-2.503-.54-4.46-1.622-5.87-1.082-1.41-2.571-2.116-4.47-2.116ZM42.496 32.002c-.769-.403-1.923-.782-3.464-1.137s-2.603-.746-3.185-1.173c-.583-.427-.874-1.029-.874-1.806 0-.805.35-1.46 1.05-1.964.7-.503 1.627-.755 2.781-.755 1.184 0 2.165.302 2.943.906.778.605 1.167 1.362 1.167 2.274h1.761c0-1.382-.535-2.502-1.607-3.36-1.071-.859-2.493-1.288-4.264-1.288-1.634 0-2.974.4-4.021 1.201-1.048.801-1.57 1.816-1.57 3.044 0 .777.187 1.439.564 1.986.377.547.954 1.01 1.732 1.389s1.871.714 3.28 1.007c1.41.292 2.464.698 3.164 1.216.7.517 1.049 1.204 1.049 2.057 0 .806-.377 1.473-1.13 2-.754.528-1.742.792-2.965.792-1.311 0-2.366-.28-3.163-.842-.798-.561-1.23-1.345-1.299-2.352h-1.761c0 1.342.575 2.453 1.724 3.33 1.15.879 2.65 1.317 4.5 1.317 1.74 0 3.152-.393 4.233-1.18 1.082-.786 1.623-1.837 1.623-3.151 0-.806-.187-1.491-.558-2.058-.372-.566-.942-1.05-1.71-1.453ZM52.796 38.348c-.744 0-1.275-.212-1.593-.634-.318-.423-.477-1.066-.477-1.93V25.396h3.288v-1.41h-3.288V20h-1.761v3.986h-2.92v1.41h2.92v10.39c0 1.333.274 2.343.822 3.029.548.685 1.424 1.028 2.627 1.028.793 0 1.419-.08 1.879-.242l-.073-1.398c-.656.096-1.13.144-1.424.144ZM64.322 23.886c-.284-.125-.67-.187-1.16-.187-2.054 0-3.547.92-4.476 2.763l-.03-2.475H56.94v15.57h1.747V28.865c.323-1.142.863-2.013 1.621-2.612.759-.6 1.686-.9 2.782-.9.42 0 .817.034 1.189.101l.044-1.568ZM75.506 30.419H65.98c.196-1.602.746-2.878 1.65-3.828.906-.95 2.02-1.424 3.34-1.424 1.33 0 2.407.47 3.23 1.41.821.94 1.256 2.158 1.306 3.655v.187Zm-4.536-6.72a6.189 6.189 0 0 0-3.434 1.029c-1.057.686-1.882 1.628-2.474 2.827-.592 1.2-.887 2.547-.887 4.044v.619c0 1.448.303 2.755.91 3.92.606 1.166 1.455 2.075 2.546 2.728 1.09.652 2.312.978 3.662.978 2.456 0 4.33-.916 5.622-2.748l-1.101-.82c-.587.738-1.24 1.275-1.96 1.611-.719.336-1.548.504-2.487.504-1.566 0-2.865-.588-3.897-1.763-1.033-1.175-1.549-2.645-1.549-4.41v-.331h11.331v-.964c0-2.236-.565-3.998-1.695-5.288-1.13-1.29-2.66-1.936-4.587-1.936ZM89.364 35.254c-.42.93-1.093 1.674-2.018 2.23-.925.557-1.974.835-3.148.835-1.057 0-1.916-.288-2.576-.863-.66-.576-.991-1.3-.991-2.173 0-1.065.494-1.902 1.482-2.511.989-.61 2.358-.924 4.11-.943h3.141v3.425Zm1.747-6.62c-.03-1.553-.556-2.765-1.578-3.633-1.023-.868-2.42-1.302-4.19-1.302-1.713 0-3.156.453-4.33 1.36-1.175.906-1.762 1.978-1.762 3.216l1.761.014c0-.863.401-1.602 1.204-2.216.802-.614 1.815-.92 3.038-.92 1.341 0 2.36.318 3.06.956.7.638 1.05 1.513 1.05 2.626v1.77H86.18c-2.3 0-4.093.442-5.38 1.324-1.286.883-1.93 2.082-1.93 3.598 0 1.275.472 2.33 1.417 3.165.944.835 2.18 1.252 3.706 1.252a7.336 7.336 0 0 0 3.03-.64 6.106 6.106 0 0 0 2.357-1.82c.049.959.161 1.683.337 2.173h1.879v-.173c-.323-.748-.484-1.876-.484-3.382v-7.367ZM110.881 23.699c-1.145 0-2.192.261-3.141.784a5.905 5.905 0 0 0-2.275 2.238c-.675-2.015-2.266-3.022-4.77-3.022-1.077 0-2.055.235-2.936.705-.88.47-1.614 1.175-2.201 2.115l-.06-2.532h-1.687v15.57h1.761V28.879c.382-1.218.969-2.137 1.761-2.755.793-.62 1.742-.929 2.848-.929 1.311 0 2.282.329 2.914.986.631.657.951 1.652.961 2.986v10.39h1.761V29.253c.098-1.122.582-2.074 1.453-2.856.871-.782 1.938-1.182 3.2-1.202 1.36 0 2.341.336 2.943 1.008.602.671.907 1.703.917 3.094v10.26h1.762v-10.39c-.069-3.645-1.806-5.468-5.211-5.468Z" fill="currentColor"></path></svg>